<?xml version="1.0" encoding="UTF-8"?>
<svg id="Capa_2" xmlns="http://www.w3.org/2000/svg" viewBox="0 0 19.94 12.03">
  <defs>
    <style>
      .cls-1 {
        fill: #fff;
      }
    </style>
  </defs>
  <g id="Capa_1-2" data-name="Capa_1">
    <path class="cls-1" d="M13.93,0h-7.91C2.69,0,0,2.69,0,6.02s2.69,6.02,6.02,6.02h7.91c3.32,0,6.02-2.69,6.02-6.02S17.25,0,13.93,0ZM8.71,6.57c0,.2-.16.36-.36.36h-1.75c-.2,0-.36.16-.36.36v1.75c0,.2-.16.36-.36.36h-1.11c-.2,0-.36-.16-.36-.36v-1.75c0-.2-.16-.36-.36-.36h-1.75c-.2,0-.36-.16-.36-.36v-1.11c0-.2.16-.36.36-.36h1.75c.2,0,.36-.16.36-.36v-1.75c0-.2.16-.36.36-.36h1.11c.2,0,.36.16.36.36v1.75c0,.2.16.36.36.36h1.75c.2,0,.36.16.36.36v1.11ZM12.95,9.41c-.95,0-1.76-.82-1.75-1.76,0-.95.81-1.75,1.77-1.74.96,0,1.74.79,1.74,1.76,0,.96-.79,1.75-1.75,1.75ZM16.24,6.12c-.96,0-1.75-.79-1.75-1.75,0-.95.82-1.76,1.76-1.75.95,0,1.75.81,1.74,1.77,0,.96-.79,1.74-1.76,1.74Z"/>
  </g>
</svg>