<?xml version="1.0" encoding="UTF-8"?>
<svg id="Capa_2" xmlns="http://www.w3.org/2000/svg" viewBox="0 0 17.68 20">
  <defs>
    <style>
      .cls-1 {
        fill: #fff;
      }
    </style>
  </defs>
  <g id="Capa_1-2" data-name="Capa_1">
    <g>
      <path class="cls-1" d="M1.89,20c-.45-.11-.86-.29-1.2-.62C.25,18.93,0,18.39,0,17.75,0,12.59,0,7.43,0,2.26,0,1.01,1.01,0,2.26,0c2.83,0,5.66,0,8.49,0,1.22,0,2.23.98,2.27,2.2,0,.19,0,.38,0,.57,0,.13-.04.19-.18.19-.29,0-.59,0-.88,0-.12,0-.17-.05-.17-.16,0-.14,0-.29,0-.43,0-.7-.43-1.15-1.14-1.16-.4,0-.79,0-1.19,0-2.35,0-4.7,0-7.04,0-.3,0-.58.05-.82.25-.29.25-.4.56-.4.93,0,.8,0,1.6,0,2.4,0,3.44,0,6.88,0,10.32,0,.26.03.52.18.75.23.34.56.5.96.5,2.77,0,5.54,0,8.31,0,.7,0,1.14-.45,1.14-1.16,0-.13,0-.26,0-.39,0-.13.04-.18.18-.17.29.02.59.03.88-.01.12-.02.17.03.17.15,0,.17,0,.34,0,.51,0,.79,0,1.57,0,2.36,0,1.19-.71,2.07-1.87,2.34-.02,0-.04.01-.05.02H1.89ZM6.51,17.55c-.28,0-.56,0-.84,0-.39,0-.67.25-.69.6-.02.36.26.65.65.66.6.01,1.19.01,1.79,0,.38,0,.63-.29.62-.66-.01-.35-.28-.59-.66-.6-.29,0-.58,0-.88,0Z"/>
      <path class="cls-1" d="M12.43,3.48c-3.03-.03-5.4,2.46-5.37,5.29-.06,2.73,2.14,5.32,5.28,5.34,3.11.02,5.28-2.5,5.34-5.21.06-2.9-2.29-5.39-5.25-5.42ZM13.19,11.33h-.74c-.69,0-1.32-.22-1.81-.58-.01-.01-.03-.02-.04-.03-.12-.1-.24-.2-.35-.31-.41-.44-.65-1-.65-1.61,0,0,0,0,0,0,0-1.4,1.28-2.54,2.85-2.54h2.65s-.83.89-.83.89h-1.81c-.08,0-.15,0-.23.01-.01,0-.02,0-.03,0-.04,0-.07.01-.11.02-.53.11-1.01.45-1.24.86l2.19-.07-.57.78h-1.8c0,.34.12.66.33.92.33.41.87.68,1.47.68h.44l1.19-1.81,1.03-.15-1.95,2.95Z"/>
    </g>
  </g>
</svg>