<?xml version="1.0" encoding="UTF-8"?>
<svg id="Capa_2" xmlns="http://www.w3.org/2000/svg" viewBox="0 0 19.96 19.97">
  <defs>
    <style>
      .cls-1 {
        fill: #fff;
      }
    </style>
  </defs>
  <g id="Capa_1-2" data-name="Capa_1">
    <g>
      <path class="cls-1" d="M0,6.72v-.66c.19-.68.65-1.07,1.33-1.25,2.38-.62,4.75-1.27,7.12-1.9.95-.25,1.77.23,2.03,1.19,1.06,3.95,2.11,7.89,3.17,11.84.26.97-.22,1.79-1.19,2.05-1.27.34-2.54.68-3.81,1.02-1.18.32-2.37.64-3.55.96h-.66c-.72-.21-1.08-.7-1.27-1.41-.78-2.96-1.58-5.91-2.37-8.87-.27-.99-.54-1.98-.8-2.97ZM7.6,14.62c.22,0,.33-.1.41-.34.36-1.06.71-2.11,1.07-3.17.08-.23.03-.4-.14-.56-.85-.74-1.69-1.49-2.54-2.23-.27-.24-.57-.16-.69.18-.37,1.08-.73,2.16-1.1,3.24-.07.2-.01.36.14.49.86.75,1.71,1.51,2.57,2.26.09.08.18.13.28.12Z"/>
      <path class="cls-1" d="M10.87,0c.46.03.91.13,1.35.21,2.12.37,4.24.75,6.36,1.12.98.17,1.52.95,1.35,1.93-.71,4.01-1.41,8.02-2.12,12.03-.15.84-.64,1.34-1.44,1.44-.32.04-.62-.06-.92-.11-.18-.03-.38-.03-.53-.12-.17-.1-.06-.34-.11-.51-.2-.75-.39-1.49-.59-2.24-.23-.88-.46-1.76-.71-2.63-.05-.17,0-.26.14-.35.88-.6,1.67-1.28,2.24-2.19.29-.46.51-.94.5-1.49-.01-.56-.29-.97-.79-1.2-.51-.24-1-.17-1.44.18-.05.04-.1.08-.14.13-.07.08-.12.08-.17-.03-.05-.11-.11-.22-.19-.32-.37-.45-.86-.63-1.42-.48-.2.05-.26,0-.3-.19-.12-.47-.25-.94-.38-1.41-.3-1.08-.99-1.76-2.08-2.01-.2-.04-.23-.12-.19-.31.16-.81.58-1.29,1.28-1.44.1-.02.21-.02.3-.03Z"/>
    </g>
  </g>
</svg>