<?xml version="1.0" encoding="UTF-8"?>
<svg id="Capa_2" xmlns="http://www.w3.org/2000/svg" viewBox="0 0 20 14.08">
  <defs>
    <style>
      .cls-1 {
        fill: #a6b2d9;
      }
    </style>
  </defs>
  <g id="Capa_1-2" data-name="Capa_1">
    <g>
      <path class="cls-1" d="M0,0C.09,0,.18,0,.27,0c6.47,0,12.93,0,19.4,0,.05,0,.1,0,.16,0,.12,0,.17.02.17.09,0,.34,0,.68,0,1.02,0,.06-.05.09-.17.09-.06,0-.12,0-.18,0-6.45,0-12.91,0-19.36,0-.1,0-.19,0-.29,0V0Z"/>
      <path class="cls-1" d="M0,12.9c.09,0,.18,0,.27,0,6.47,0,12.93,0,19.4,0,.05,0,.1,0,.16,0,.12,0,.17.02.17.09,0,.34,0,.68,0,1.02,0,.06-.05.09-.17.09-.06,0-.12,0-.18,0-6.45,0-12.91,0-19.36,0-.1,0-.19,0-.29,0v-1.17Z"/>
      <path class="cls-1" d="M0,2.35c.07,0,.14-.01.21-.01,1.81,0,3.62,0,5.43,0,.27,0,.27,0,.27.27,0,2.96,0,5.92,0,8.88,0,.27,0,.27-.27.27-1.81,0-3.62,0-5.43,0-.07,0-.14,0-.21-.01,0-3.13,0-6.26,0-9.39ZM2.97,4.71c-.52,0-1.04,0-1.56,0-.15,0-.19.05-.19.19,0,.45,0,.9,0,1.35,0,.16.06.2.21.2.17,0,.34,0,.51,0,.41,0,.42,0,.43-.41,0-.14.06-.18.19-.17.25,0,.49,0,.74,0,.27,0,.3.03.27.31,0,.09-.06.14-.11.2-.83,1-1.11,2.17-1.07,3.44,0,.12.06.16.17.15.18,0,.35,0,.53,0,.45,0,.46,0,.45-.46-.04-1.07.32-1.98,1.08-2.73.08-.08.1-.16.1-.26,0-.53,0-1.06,0-1.58,0-.17-.04-.23-.22-.23-.51.01-1.01,0-1.52,0Z"/>
      <path class="cls-1" d="M14.08,7.02c0-1.47,0-2.95,0-4.42,0-.27,0-.27.27-.27,1.8,0,3.59,0,5.39,0,.27,0,.27,0,.27.27,0,2.96,0,5.92,0,8.88,0,.27,0,.27-.27.27-1.8,0-3.59,0-5.39,0-.27,0-.27,0-.27-.27,0-1.49,0-2.97,0-4.46ZM17.02,4.71c-.52,0-1.04,0-1.56,0-.11,0-.19.02-.18.16,0,.48,0,.95,0,1.43,0,.11.04.15.15.15.19,0,.39,0,.59,0,.39,0,.4,0,.41-.4,0-.15.06-.19.2-.19.25,0,.49,0,.74,0,.27,0,.28.02.26.29,0,.09-.05.15-.1.21-.83,1-1.12,2.17-1.08,3.44,0,.13.05.17.18.17.26,0,.52,0,.78,0,.14,0,.19-.04.19-.19,0-.31-.03-.63.02-.94.11-.79.46-1.47,1.03-2.04.09-.08.12-.17.12-.29,0-.53,0-1.07,0-1.6,0-.16-.05-.2-.2-.2-.51,0-1.03,0-1.54,0Z"/>
      <path class="cls-1" d="M12.93,7.05c0,1.48,0,2.96,0,4.44,0,.26,0,.26-.25.26-1.8,0-3.59,0-5.39,0-.18,0-.25-.05-.25-.24,0-2.98,0-5.96,0-8.93,0-.18.04-.25.24-.25,1.8,0,3.6,0,5.4,0,.21,0,.25.07.25.26,0,1.49,0,2.97,0,4.46ZM10.01,4.71c-.53,0-1.05,0-1.58,0-.14,0-.18.05-.18.18,0,.46,0,.91,0,1.37,0,.15.06.19.2.19.17,0,.34,0,.51,0,.42,0,.42,0,.44-.42,0-.13.06-.17.18-.16.25,0,.51,0,.76,0,.25,0,.35.18.23.41-.03.05-.07.1-.1.14-.81,1-1.08,2.16-1.04,3.42,0,.11.06.14.16.14.17,0,.34,0,.51,0,.48,0,.49,0,.48-.48-.04-1.06.32-1.95,1.07-2.69.08-.08.1-.17.1-.28,0-.53,0-1.06,0-1.58,0-.18-.06-.22-.23-.22-.5,0-1,0-1.5,0Z"/>
    </g>
  </g>
</svg>