<?xml version="1.0" encoding="UTF-8"?>
<svg id="Capa_2" xmlns="http://www.w3.org/2000/svg" viewBox="0 0 20 20">
  <defs>
    <style>
      .cls-1 {
        fill: #a6b2d9;
      }
    </style>
  </defs>
  <g id="Capa_1-2" data-name="Capa_1">
    <path class="cls-1" d="M0,10.81v-1.64c.05-.31.07-.63.14-.94C.98,4.24,3.34,1.62,7.22.37c.63-.2,1.29-.29,1.95-.37h1.64s.08.02.11.02c1,.09,1.96.33,2.88.71,3.98,1.65,6.55,5.71,6.15,10.14-.15,1.7-.66,3.29-1.65,4.67-2.47,3.47-5.87,5.01-10.07,4.27-4.07-.72-6.68-3.24-7.9-7.19-.18-.59-.26-1.21-.33-1.82ZM8.6,3.95c-1.06.04-2.06.14-3.06.31-.11.02-.17.08-.22.17-.66,1.24-1.33,2.48-1.99,3.71-.05.1-.06.19,0,.29.46.93,1.01,1.8,1.59,2.66.06.09.14.13.25.12.26-.03.53-.06.79-.08,1.08-.11,2.17-.23,3.26-.34.15-.02.25-.07.32-.21.48-.92.97-1.84,1.46-2.76.07-.14.07-.24-.01-.38-.62-1.06-1.23-2.11-1.83-3.18-.14-.25-.29-.4-.54-.33ZM8.3,17.86c.67-.05,1.33-.1,2-.19.13-.02.19-.08.23-.2.36-1.09.72-2.18,1.09-3.27.04-.12.02-.21-.07-.3-.7-.71-1.33-1.47-1.99-2.22-.15-.17-.3-.21-.51-.19-.85.09-1.69.18-2.54.26-.41.04-.83.08-1.24.13-.12.01-.22.03-.28.17-.29.76-.62,1.5-.86,2.28-.04.14-.01.23.08.34.91,1.02,1.81,2.04,2.72,3.06.06.06.12.12.21.13.17,0,.94,0,1.15,0ZM10.92,1.88c-.15-.02-.21.08-.28.18-.34.47-.68.94-1.02,1.4-.07.1-.08.18-.02.28.64,1.11,1.28,2.21,1.92,3.32.05.08.11.13.21.15,1.11.17,2.22.37,3.3.66.12.03.19,0,.26-.11.51-.81,1.03-1.62,1.55-2.43.06-.1.06-.18,0-.29-.44-.8-.93-1.56-1.51-2.27-.07-.08-.15-.13-.26-.15-.93-.16-1.85-.33-2.78-.5-.46-.08-.92-.16-1.38-.24ZM17.82,14.14c.03-.16-.07-.19-.14-.23-.63-.37-1.25-.74-1.88-1.11-.12-.07-.21-.07-.32,0-.97.62-1.99,1.14-3.06,1.57-.13.05-.2.13-.24.26-.33,1-.66,2-1,2.99-.05.15-.02.23.12.32.49.32.99.59,1.54.8.14.05.26.05.39,0,1.13-.42,2.14-1.03,3.03-1.84.36-.32.7-.65.9-1.11.22-.5.43-1,.62-1.51.02-.06.04-.12.04-.14ZM15.66,8.48c0,.07,0,.09,0,.11.22,1.12.34,2.25.34,3.39,0,.1.05.17.13.22.65.38,1.3.77,1.95,1.15.11.06.18.05.24-.05.17-.27.36-.54.53-.82.11-.18.21-.35.26-.56.19-.92.24-1.85.15-2.79-.06-.73-.22-1.44-.45-2.13-.03-.1-.08-.17-.15-.24-.34-.34-.72-.63-1.13-.9-.12-.08-.18-.08-.26.05-.51.81-1.03,1.61-1.54,2.42-.04.07-.08.13-.08.16ZM.72,9.17c.58-.42,1.18-.75,1.8-1.04.07-.03.1-.09.14-.16.69-1.29,1.38-2.58,2.07-3.86.06-.12.07-.23.04-.36-.11-.36-.19-.73-.24-1.1-.02-.16-.08-.17-.19-.08-.34.26-.66.53-.95.83-1.37,1.4-2.23,3.07-2.57,5-.04.24-.08.48-.08.76ZM1.54,13.91c.19.44.4.8.63,1.15,1,1.54,2.34,2.68,4.01,3.44.07.03.17.12.23.04.07-.1.09-.23.02-.35-.03-.04-.06-.08-.1-.12-.82-.92-1.64-1.84-2.46-2.77-.21-.24-.43-.43-.74-.54-.55-.2-1.06-.5-1.59-.85ZM14.42,1.81c-1.43-.79-2.97-1.17-4.61-1.12.32.13.63.28.94.42.06.03.13.06.2.08,1.15.21,2.31.41,3.47.62Z"/>
  </g>
</svg>