<?xml version="1.0" encoding="UTF-8"?>
<svg id="Capa_2" xmlns="http://www.w3.org/2000/svg" viewBox="0 0 19.96 13.99">
  <defs>
    <style>
      .cls-1 {
        fill: #a6b2d9;
      }
    </style>
  </defs>
  <g id="Capa_1-2" data-name="Capa_1">
    <g>
      <path class="cls-1" d="M0,7.03C.05,4.48.87,2.28,2.53.39,2.81.06,3.17-.07,3.59.04c.4.11.65.39.74.79.07.33-.03.62-.24.87-.46.53-.86,1.1-1.18,1.73-1.45,2.86-1.03,6.3,1.07,8.72.26.3.45.62.34,1.03-.1.4-.34.66-.73.77-.4.11-.75,0-1.02-.3-1.19-1.32-1.97-2.85-2.35-4.6-.15-.68-.2-1.37-.23-2.02Z"/>
      <path class="cls-1" d="M17.91,6.98c-.02-1.95-.65-3.67-1.92-5.15-.24-.28-.43-.58-.36-.97.08-.41.31-.69.71-.81.42-.13.79,0,1.07.31.74.82,1.32,1.74,1.76,2.76.49,1.16.76,2.37.78,3.62.04,2.48-.73,4.69-2.31,6.61-.09.11-.18.22-.28.32-.39.39-.99.42-1.39.06-.43-.38-.49-.95-.14-1.4.33-.41.67-.82.94-1.27.75-1.26,1.13-2.61,1.13-4.08Z"/>
      <path class="cls-1" d="M3.99,7.01c.02-1.65.59-3.05,1.71-4.21.43-.44,1.07-.47,1.48-.07.41.39.41,1.04-.01,1.48-1.52,1.63-1.52,3.93,0,5.57.42.45.42,1.07,0,1.48-.42.39-1.04.37-1.46-.07-1.13-1.17-1.69-2.58-1.71-4.18Z"/>
      <path class="cls-1" d="M15.98,7.01c-.02,1.61-.57,3-1.69,4.17-.43.45-1.06.48-1.48.08-.42-.41-.43-1.02,0-1.48.76-.82,1.15-1.78,1.12-2.9-.03-1.04-.43-1.93-1.14-2.68-.27-.29-.37-.63-.24-1.01.12-.39.4-.63.8-.7.35-.07.65.04.89.29.93.94,1.49,2.07,1.68,3.38.04.29.06.57.05.86Z"/>
      <path class="cls-1" d="M9.99,5.48c.86,0,1.51.67,1.5,1.53,0,.84-.68,1.49-1.53,1.48-.84,0-1.49-.67-1.49-1.52,0-.84.67-1.5,1.52-1.49Z"/>
    </g>
  </g>
</svg>