<?xml version="1.0" encoding="UTF-8"?>
<svg id="Capa_2" xmlns="http://www.w3.org/2000/svg" viewBox="0 0 19.99 19.99">
  <defs>
    <style>
      .cls-1 {
        fill: #a6b2d9;
      }
    </style>
  </defs>
  <g id="Capa_1-2" data-name="Capa_1">
    <g>
      <path class="cls-1" d="M.21,19.99c-.21-.1-.24-.26-.19-.43.09-.35.45-.6.9-.63.14-.01.27-.02.41-.02,5.78,0,11.57,0,17.35,0,.18,0,.37,0,.54.03.4.07.63.29.77.59,0,.13,0,.27,0,.4,0,.05,0,.07-.08.06-.03,0-.06,0-.1,0H.21Z"/>
      <path class="cls-1" d="M10,17.91c-2.46,0-4.93,0-7.39,0-.29,0-.32-.02-.25-.2.16-.4.7-.65,1.44-.65.69,0,1.38,0,2.07,0,3.42,0,6.84,0,10.25,0,.5,0,.95.08,1.27.34.15.12.25.26.27.42,0,.08-.04.1-.15.1-.06,0-.12,0-.18,0-2.44,0-4.89,0-7.33,0Z"/>
      <path class="cls-1" d="M18.27,5.44c-.78-1.79-2.02-3.2-3.71-4.19C12.79.21,10.88-.18,8.85.08c-1.51.19-2.89.74-4.12,1.63-1.63,1.19-2.74,2.75-3.34,4.68-.44,1.42-.52,2.87-.23,4.33.41,2.02,1.38,3.72,2.94,5.09.17.15.35.22.58.22,1.77,0,3.55,0,5.32,0,1.79,0,3.59,0,5.38,0,.15,0,.3-.02.42-.13.38-.33.75-.68,1.07-1.07,1.44-1.73,2.15-3.72,2.13-5.96,0-1.19-.26-2.33-.74-3.42ZM10.47,5.93c1.74,0,3.15-1.66,3.15-3.71,0,2.05,1.41,3.71,3.15,3.71-1.74,0-3.15,1.66-3.15,3.71,0-2.05-1.41-3.71-3.15-3.71ZM15.72,12.51c0-1.02-.7-1.85-1.57-1.85.87,0,1.57-.83,1.57-1.85,0,1.02.7,1.85,1.57,1.85-.87,0-1.57.83-1.57,1.85Z"/>
    </g>
  </g>
</svg>